# xmcd
#
# Track frame offsets:
#	150
#	1471
#	16377
#	33200
#	52191
#	70065
#	90060
#	107520
#	139298
#	157909
#	169412
#	189297
#	208754
#	226686
#	238742
#	257951
#	272478
#	287743
#	305091
#	326036
#
# Disc length: 4656 seconds
#
# Revision: 1
# Processed by: cddbd v1.5.2PL0 Copyright (c) Steve Scherf et al.
# Submitted via: audiograbber 1.83.01
#
DISCID=11122e14
DTITLE=Omina Bust - Omina Bust
DYEAR=2006
DGENRE=Rap
TTITLE0=Tone Malone - Gambla
TTITLE1=B-Legit, Skurge, Turf Talk - Smashmatic
TTITLE2=Clyde Carson, Ray Garcia, Skurge - Good Look
TTITLE3=Doey Rock, Tone Malone - I Won't Hurt You
TTITLE4=Blee, Chuck Taylor, Zion I - Keep Move'n
TTITLE5=Mistah F.A.B., Tone Malone - On TV
TTITLE6=Royalle Family - All I Can Be
TTITLE7=Bloe, Chase, Fiasco, J-Intell, Sam Phelps - Bitches Like Rappers
TTITLE8=B-Smoove, Jae Synth, Kead Da Sneak - Shame'um Off
TTITLE9=Fame, Tone Malone - Just Doin It
TTITLE10=J Streets, Outlawz, Skrillz - Bay Area Love
TTITLE11=Bueno, DB'z - Circus Act
TTITLE12=Cali-O, JT The Bigga Figga, Theek - Cadillac Music
TTITLE13=Invincible - Hard Times
TTITLE14=Fiasco, Ray Garcia, Ron Artest, Tone Malone, Uncle Imi - Music Box
TTITLE15=Chase, Eligh, P$C - Omina Bust
TTITLE16=Dezit Eaze, Doey Rock, San Quinn - No Drought
TTITLE17=Cawzlos, Chase, Doey Rock - When Worlds Collide
TTITLE18=Gabriel Farr, Gold Fingaz, J-Intell, Omina Bust, Sam Phelps, Tone Malo
TTITLE18=ne - All Night
TTITLE19=Experimental, Keak Da Sneak, Nump Trump - Bonus Track
EXTD=www.RapMusicGuide.com
EXTT0=
EXTT1=
EXTT2=
EXTT3=
EXTT4=
EXTT5=
EXTT6=
EXTT7=
EXTT8=
EXTT9=
EXTT10=
EXTT11=
EXTT12=
EXTT13=
EXTT14=
EXTT15=
EXTT16=
EXTT17=
EXTT18=
EXTT19=
PLAYORDER=
